<mxfile host="app.diagrams.net" agent="Mozilla/5.0 (Windows NT 10.0; Win64; x64) AppleWebKit/537.36 (KHTML, like Gecko) Chrome/129.0.0.0 Safari/537.36" version="24.7.17">
  <diagram name="Страница — 1" id="6CsUsFIQKSWP15atahR_">
    <mxGraphModel dx="1050" dy="574" grid="1" gridSize="10" guides="1" tooltips="1" connect="1" arrows="1" fold="1" page="1" pageScale="1" pageWidth="827" pageHeight="1169" math="0" shadow="0">
      <root>
        <mxCell id="0" />
        <mxCell id="1" parent="0" />
        <mxCell id="__8A9UzaTZL1r763FDtf-20" style="edgeStyle=orthogonalEdgeStyle;rounded=0;orthogonalLoop=1;jettySize=auto;html=1;exitX=0.5;exitY=0;exitDx=0;exitDy=0;exitPerimeter=0;entryX=1;entryY=0.5;entryDx=0;entryDy=0;" edge="1" parent="1" source="__8A9UzaTZL1r763FDtf-1" target="__8A9UzaTZL1r763FDtf-6">
          <mxGeometry relative="1" as="geometry" />
        </mxCell>
        <mxCell id="__8A9UzaTZL1r763FDtf-1" value="" style="shape=cylinder3;whiteSpace=wrap;html=1;boundedLbl=1;backgroundOutline=1;size=15;rotation=-90;fillColor=#fff2cc;strokeColor=#d6b656;" vertex="1" parent="1">
          <mxGeometry x="414" y="23" width="74" height="148" as="geometry" />
        </mxCell>
        <mxCell id="__8A9UzaTZL1r763FDtf-27" style="edgeStyle=orthogonalEdgeStyle;rounded=0;orthogonalLoop=1;jettySize=auto;html=1;exitX=0;exitY=0.5;exitDx=0;exitDy=0;entryX=1;entryY=0.5;entryDx=0;entryDy=0;" edge="1" parent="1" source="__8A9UzaTZL1r763FDtf-5" target="__8A9UzaTZL1r763FDtf-7">
          <mxGeometry relative="1" as="geometry" />
        </mxCell>
        <mxCell id="__8A9UzaTZL1r763FDtf-30" style="edgeStyle=orthogonalEdgeStyle;rounded=0;orthogonalLoop=1;jettySize=auto;html=1;exitX=1;exitY=0.25;exitDx=0;exitDy=0;" edge="1" parent="1" source="__8A9UzaTZL1r763FDtf-5">
          <mxGeometry relative="1" as="geometry">
            <mxPoint x="610" y="198" as="targetPoint" />
            <Array as="points">
              <mxPoint x="536" y="200" />
              <mxPoint x="573" y="200" />
              <mxPoint x="573" y="199" />
            </Array>
          </mxGeometry>
        </mxCell>
        <mxCell id="__8A9UzaTZL1r763FDtf-5" value="" style="rounded=1;whiteSpace=wrap;html=1;fillColor=#d5e8d4;strokeColor=#82b366;" vertex="1" parent="1">
          <mxGeometry x="366" y="177.5" width="170" height="80" as="geometry" />
        </mxCell>
        <mxCell id="__8A9UzaTZL1r763FDtf-22" style="edgeStyle=orthogonalEdgeStyle;rounded=0;orthogonalLoop=1;jettySize=auto;html=1;exitX=0.5;exitY=1;exitDx=0;exitDy=0;entryX=0.5;entryY=0;entryDx=0;entryDy=0;" edge="1" parent="1" source="__8A9UzaTZL1r763FDtf-6" target="__8A9UzaTZL1r763FDtf-7">
          <mxGeometry relative="1" as="geometry" />
        </mxCell>
        <mxCell id="__8A9UzaTZL1r763FDtf-6" value="" style="rounded=1;whiteSpace=wrap;html=1;" vertex="1" parent="1">
          <mxGeometry x="100" y="57" width="160" height="80" as="geometry" />
        </mxCell>
        <mxCell id="__8A9UzaTZL1r763FDtf-23" style="edgeStyle=orthogonalEdgeStyle;rounded=0;orthogonalLoop=1;jettySize=auto;html=1;exitX=0.5;exitY=0;exitDx=0;exitDy=0;entryX=0.5;entryY=1;entryDx=0;entryDy=0;" edge="1" parent="1" source="__8A9UzaTZL1r763FDtf-7" target="__8A9UzaTZL1r763FDtf-6">
          <mxGeometry relative="1" as="geometry" />
        </mxCell>
        <mxCell id="__8A9UzaTZL1r763FDtf-25" style="edgeStyle=orthogonalEdgeStyle;rounded=0;orthogonalLoop=1;jettySize=auto;html=1;exitX=0.5;exitY=1;exitDx=0;exitDy=0;entryX=0.5;entryY=0;entryDx=0;entryDy=0;" edge="1" parent="1" source="__8A9UzaTZL1r763FDtf-7" target="__8A9UzaTZL1r763FDtf-8">
          <mxGeometry relative="1" as="geometry" />
        </mxCell>
        <mxCell id="__8A9UzaTZL1r763FDtf-26" style="edgeStyle=orthogonalEdgeStyle;rounded=0;orthogonalLoop=1;jettySize=auto;html=1;exitX=1;exitY=0.5;exitDx=0;exitDy=0;entryX=0;entryY=0.5;entryDx=0;entryDy=0;" edge="1" parent="1" source="__8A9UzaTZL1r763FDtf-7" target="__8A9UzaTZL1r763FDtf-5">
          <mxGeometry relative="1" as="geometry" />
        </mxCell>
        <mxCell id="__8A9UzaTZL1r763FDtf-7" value="" style="rounded=1;whiteSpace=wrap;html=1;fillColor=#fff2cc;strokeColor=#d6b656;" vertex="1" parent="1">
          <mxGeometry x="102.5" y="175" width="155" height="85" as="geometry" />
        </mxCell>
        <mxCell id="__8A9UzaTZL1r763FDtf-24" style="edgeStyle=orthogonalEdgeStyle;rounded=0;orthogonalLoop=1;jettySize=auto;html=1;exitX=0.5;exitY=0;exitDx=0;exitDy=0;entryX=0.5;entryY=1;entryDx=0;entryDy=0;" edge="1" parent="1" source="__8A9UzaTZL1r763FDtf-8" target="__8A9UzaTZL1r763FDtf-7">
          <mxGeometry relative="1" as="geometry" />
        </mxCell>
        <mxCell id="__8A9UzaTZL1r763FDtf-8" value="" style="rounded=1;whiteSpace=wrap;html=1;" vertex="1" parent="1">
          <mxGeometry x="105" y="300" width="150" height="80" as="geometry" />
        </mxCell>
        <mxCell id="__8A9UzaTZL1r763FDtf-9" value="Клиент" style="shape=umlActor;verticalLabelPosition=bottom;verticalAlign=top;html=1;outlineConnect=0;align=center;fontStyle=0" vertex="1" parent="1">
          <mxGeometry x="450" y="310" width="30" height="60" as="geometry" />
        </mxCell>
        <mxCell id="__8A9UzaTZL1r763FDtf-12" value="Модель (Model)" style="text;html=1;align=center;verticalAlign=middle;whiteSpace=wrap;rounded=0;" vertex="1" parent="1">
          <mxGeometry x="150" y="82" width="60" height="30" as="geometry" />
        </mxCell>
        <mxCell id="__8A9UzaTZL1r763FDtf-13" value="Контроллер (Controller)" style="text;html=1;align=center;verticalAlign=middle;whiteSpace=wrap;rounded=0;" vertex="1" parent="1">
          <mxGeometry x="147.5" y="205" width="60" height="30" as="geometry" />
        </mxCell>
        <mxCell id="__8A9UzaTZL1r763FDtf-14" value="Представление (View)" style="text;html=1;align=center;verticalAlign=middle;whiteSpace=wrap;rounded=0;" vertex="1" parent="1">
          <mxGeometry x="150" y="330" width="60" height="30" as="geometry" />
        </mxCell>
        <mxCell id="__8A9UzaTZL1r763FDtf-15" value="База данных (Database)" style="text;html=1;align=center;verticalAlign=middle;whiteSpace=wrap;rounded=0;" vertex="1" parent="1">
          <mxGeometry x="430" y="78" width="60" height="30" as="geometry" />
        </mxCell>
        <mxCell id="__8A9UzaTZL1r763FDtf-16" value="Платёжный шлюз (Payment Gateway Integrationюз)" style="text;html=1;align=center;verticalAlign=middle;whiteSpace=wrap;rounded=0;" vertex="1" parent="1">
          <mxGeometry x="391" y="202.5" width="120" height="30" as="geometry" />
        </mxCell>
        <mxCell id="__8A9UzaTZL1r763FDtf-21" style="edgeStyle=orthogonalEdgeStyle;rounded=0;orthogonalLoop=1;jettySize=auto;html=1;exitX=1;exitY=0.5;exitDx=0;exitDy=0;entryX=0.5;entryY=0;entryDx=0;entryDy=0;entryPerimeter=0;" edge="1" parent="1" source="__8A9UzaTZL1r763FDtf-6" target="__8A9UzaTZL1r763FDtf-1">
          <mxGeometry relative="1" as="geometry" />
        </mxCell>
        <mxCell id="__8A9UzaTZL1r763FDtf-28" style="edgeStyle=orthogonalEdgeStyle;rounded=0;orthogonalLoop=1;jettySize=auto;html=1;exitX=0.5;exitY=0.5;exitDx=0;exitDy=0;exitPerimeter=0;entryX=1;entryY=0.5;entryDx=0;entryDy=0;" edge="1" parent="1" source="__8A9UzaTZL1r763FDtf-9" target="__8A9UzaTZL1r763FDtf-8">
          <mxGeometry relative="1" as="geometry" />
        </mxCell>
        <mxCell id="__8A9UzaTZL1r763FDtf-29" style="edgeStyle=orthogonalEdgeStyle;rounded=0;orthogonalLoop=1;jettySize=auto;html=1;exitX=1;exitY=0.5;exitDx=0;exitDy=0;entryX=0.5;entryY=0.5;entryDx=0;entryDy=0;entryPerimeter=0;" edge="1" parent="1" source="__8A9UzaTZL1r763FDtf-8" target="__8A9UzaTZL1r763FDtf-9">
          <mxGeometry relative="1" as="geometry" />
        </mxCell>
        <mxCell id="__8A9UzaTZL1r763FDtf-31" value="" style="endArrow=classic;html=1;rounded=0;" edge="1" parent="1">
          <mxGeometry width="50" height="50" relative="1" as="geometry">
            <mxPoint x="620" y="235" as="sourcePoint" />
            <mxPoint x="536" y="235" as="targetPoint" />
            <Array as="points">
              <mxPoint x="606" y="235" />
            </Array>
          </mxGeometry>
        </mxCell>
        <mxCell id="__8A9UzaTZL1r763FDtf-32" value="Онлайн-банк" style="text;html=1;align=center;verticalAlign=middle;whiteSpace=wrap;rounded=0;" vertex="1" parent="1">
          <mxGeometry x="550" y="160" width="80" height="30" as="geometry" />
        </mxCell>
        <mxCell id="__8A9UzaTZL1r763FDtf-33" value="Онлайн-банк" style="text;html=1;align=center;verticalAlign=middle;whiteSpace=wrap;rounded=0;" vertex="1" parent="1">
          <mxGeometry x="560" y="235" width="80" height="30" as="geometry" />
        </mxCell>
      </root>
    </mxGraphModel>
  </diagram>
</mxfile>
